<svg xmlns="http://www.w3.org/2000/svg" xmlns:xlink="http://www.w3.org/1999/xlink" preserveAspectRatio="xMidYMid" width="110.031" height="78" viewBox="0 0 110.031 78">
  <defs>
    <style>
      .cls-1 {
        fill: #ee394e;
        fill-rule: evenodd;
      }
    </style>
  </defs>
  <path d="M109.939,51.943 C110.176,55.633 110.099,60.244 107.395,65.703 C105.564,69.401 102.948,72.658 98.786,74.962 C96.045,76.479 93.206,77.539 90.112,77.868 C89.962,77.885 89.811,77.899 89.659,77.912 C89.028,77.966 88.393,78.003 87.746,78.004 C87.735,78.004 87.724,78.005 87.713,78.005 C87.711,78.005 87.707,78.005 87.704,78.005 C87.701,78.005 87.700,78.005 87.697,78.005 C87.693,78.005 87.689,78.005 87.685,78.005 C82.217,78.001 77.514,77.080 73.579,75.239 C69.636,73.396 66.414,71.016 63.915,68.104 C61.413,65.191 59.588,61.988 58.433,58.493 C57.279,54.998 56.703,51.601 56.703,48.300 C56.703,41.215 57.760,35.050 59.876,29.807 C61.990,24.565 64.853,19.956 68.458,15.974 C72.064,11.994 87.686,0.006 109.465,0.006 L109.465,6.609 C103.538,8.879 99.364,12.474 96.947,17.391 C94.527,22.309 93.318,25.046 93.318,31.236 L93.318,32.159 C104.605,35.593 109.242,41.114 109.939,51.943 ZM42.077,74.962 C39.336,76.479 36.498,77.539 33.403,77.868 C33.253,77.885 33.102,77.899 32.951,77.912 C32.320,77.966 31.685,78.003 31.037,78.004 C31.027,78.004 31.015,78.005 31.005,78.005 C31.002,78.005 30.998,78.005 30.995,78.005 C30.992,78.005 30.991,78.005 30.988,78.005 C30.984,78.005 30.980,78.005 30.976,78.005 C25.508,78.001 20.805,77.080 16.870,75.239 C12.927,73.396 9.705,71.016 7.206,68.104 C4.705,65.191 2.879,61.988 1.725,58.493 C0.570,54.998 -0.006,51.601 -0.006,48.300 C-0.006,41.215 1.051,35.050 3.168,29.807 C5.281,24.565 8.144,19.956 11.749,15.974 C15.355,11.994 30.977,0.006 52.756,0.006 L52.756,6.609 C46.829,8.879 42.655,12.474 40.238,17.391 C37.818,22.309 36.609,25.046 36.609,31.236 L36.609,32.159 C47.896,35.593 52.533,41.114 53.230,51.943 C53.468,55.633 53.390,60.244 50.686,65.703 C48.855,69.401 46.239,72.658 42.077,74.962 Z" class="cls-1"/>
</svg>
